<svg width="189" height="20" viewBox="0 0 189 20" fill="none" xmlns="http://www.w3.org/2000/svg">
<path d="M4.7326 19H0.778054L6.80362 1.54545H11.5593L17.5764 19H13.6218L9.24965 5.53409H9.11328L4.7326 19ZM4.48544 12.1392H13.8264V15.0199H4.48544V12.1392ZM23.3675 1.54545V19H19.6772V1.54545H23.3675ZM31.9585 19V1.54545H38.8448C40.1687 1.54545 41.2965 1.7983 42.2283 2.30398C43.1602 2.80398 43.8704 3.5 44.359 4.39204C44.8533 5.27841 45.1005 6.30114 45.1005 7.46023C45.1005 8.61932 44.8505 9.64205 44.3505 10.5284C43.8505 11.4148 43.1261 12.1051 42.1772 12.5994C41.234 13.0937 40.092 13.3409 38.7511 13.3409H34.3619V10.3835H38.1545C38.8647 10.3835 39.4499 10.2614 39.9102 10.017C40.3761 9.76705 40.7227 9.4233 40.9499 8.9858C41.1829 8.54261 41.2994 8.03409 41.2994 7.46023C41.2994 6.88068 41.1829 6.375 40.9499 5.94318C40.7227 5.50568 40.3761 5.16761 39.9102 4.92898C39.4442 4.68466 38.8533 4.5625 38.1374 4.5625H35.6488V19H31.9585ZM47.4293 19V5.90909H50.9492V8.19318H51.0856C51.3242 7.38068 51.7248 6.76705 52.2873 6.35227C52.8498 5.93182 53.4975 5.72159 54.2305 5.72159C54.4123 5.72159 54.6083 5.73295 54.8185 5.75568C55.0288 5.77841 55.2134 5.80966 55.3725 5.84943V9.07102C55.2021 9.01989 54.9663 8.97443 54.6651 8.93466C54.364 8.89489 54.0884 8.875 53.8384 8.875C53.3043 8.875 52.8271 8.99148 52.4066 9.22443C51.9918 9.4517 51.6623 9.76989 51.418 10.179C51.1793 10.5881 51.06 11.0597 51.06 11.5938V19H47.4293ZM62.555 19.2557C61.2312 19.2557 60.0863 18.9744 59.1204 18.4119C58.1602 17.8437 57.4187 17.054 56.896 16.0426C56.3732 15.0256 56.1119 13.8466 56.1119 12.5057C56.1119 11.1534 56.3732 9.97159 56.896 8.96023C57.4187 7.94318 58.1602 7.15341 59.1204 6.59091C60.0863 6.02273 61.2312 5.73864 62.555 5.73864C63.8789 5.73864 65.021 6.02273 65.9812 6.59091C66.9471 7.15341 67.6914 7.94318 68.2141 8.96023C68.7369 9.97159 68.9982 11.1534 68.9982 12.5057C68.9982 13.8466 68.7369 15.0256 68.2141 16.0426C67.6914 17.054 66.9471 17.8437 65.9812 18.4119C65.021 18.9744 63.8789 19.2557 62.555 19.2557ZM62.5721 16.4432C63.1744 16.4432 63.6772 16.2727 64.0806 15.9318C64.484 15.5852 64.788 15.1136 64.9925 14.517C65.2028 13.9205 65.3079 13.2415 65.3079 12.4801C65.3079 11.7188 65.2028 11.0398 64.9925 10.4432C64.788 9.84659 64.484 9.375 64.0806 9.02841C63.6772 8.68182 63.1744 8.50852 62.5721 8.50852C61.9641 8.50852 61.4528 8.68182 61.038 9.02841C60.6289 9.375 60.3192 9.84659 60.109 10.4432C59.9045 11.0398 59.8022 11.7188 59.8022 12.4801C59.8022 13.2415 59.9045 13.9205 60.109 14.517C60.3192 15.1136 60.6289 15.5852 61.038 15.9318C61.4528 16.2727 61.9641 16.4432 62.5721 16.4432ZM76.1829 19.2131C75.1886 19.2131 74.288 18.9574 73.4812 18.446C72.68 17.929 72.0437 17.1705 71.5721 16.1705C71.1062 15.1648 70.8732 13.9318 70.8732 12.4716C70.8732 10.9716 71.1147 9.72443 71.5977 8.73011C72.0806 7.73011 72.7227 6.98295 73.5238 6.48864C74.3306 5.98864 75.2141 5.73864 76.1744 5.73864C76.9073 5.73864 77.5181 5.86364 78.0067 6.11364C78.5011 6.35795 78.8988 6.66477 79.1999 7.03409C79.5067 7.39773 79.7397 7.75568 79.8988 8.10795H80.0096V1.54545H83.6317V19H80.0522V16.9034H79.8988C79.7283 17.267 79.4869 17.6278 79.1744 17.9858C78.8675 18.3381 78.467 18.6307 77.9727 18.8636C77.484 19.0966 76.8874 19.2131 76.1829 19.2131ZM77.3335 16.3239C77.9187 16.3239 78.413 16.1648 78.8164 15.8466C79.2255 15.5227 79.538 15.071 79.7539 14.4915C79.9755 13.9119 80.0863 13.233 80.0863 12.4545C80.0863 11.6761 79.9783 11 79.7624 10.4261C79.5465 9.85227 79.234 9.40909 78.8249 9.09659C78.4158 8.78409 77.9187 8.62784 77.3335 8.62784C76.7369 8.62784 76.234 8.78977 75.8249 9.11364C75.4158 9.4375 75.1062 9.88636 74.896 10.4602C74.6857 11.0341 74.5806 11.6989 74.5806 12.4545C74.5806 13.2159 74.6857 13.8892 74.896 14.4744C75.1119 15.054 75.4215 15.5085 75.8249 15.8381C76.234 16.1619 76.7369 16.3239 77.3335 16.3239ZM95.0117 13.4261V5.90909H98.6424V19H95.1566V16.6222H95.0202C94.7248 17.3892 94.2333 18.0057 93.5458 18.4716C92.864 18.9375 92.0316 19.1705 91.0487 19.1705C90.1737 19.1705 89.4038 18.9716 88.739 18.5739C88.0742 18.1761 87.5543 17.6108 87.1793 16.8778C86.81 16.1449 86.6225 15.267 86.6168 14.2443V5.90909H90.2475V13.5966C90.2532 14.3693 90.4606 14.9801 90.8697 15.429C91.2788 15.8778 91.8271 16.1023 92.5146 16.1023C92.9521 16.1023 93.3612 16.0028 93.7418 15.804C94.1225 15.5994 94.4293 15.2983 94.6623 14.9006C94.9009 14.5028 95.0174 14.0114 95.0117 13.4261ZM107.461 19.2557C106.12 19.2557 104.967 18.9716 104.001 18.4034C103.041 17.8295 102.302 17.0341 101.785 16.017C101.274 15 101.018 13.8295 101.018 12.5057C101.018 11.1648 101.277 9.98864 101.794 8.97727C102.316 7.96023 103.058 7.16761 104.018 6.59943C104.978 6.02557 106.12 5.73864 107.444 5.73864C108.586 5.73864 109.586 5.94602 110.444 6.36079C111.302 6.77557 111.981 7.35795 112.481 8.10795C112.981 8.85795 113.257 9.73864 113.308 10.75H109.882C109.785 10.0966 109.529 9.57102 109.115 9.1733C108.706 8.76989 108.169 8.56818 107.504 8.56818C106.941 8.56818 106.45 8.72159 106.029 9.02841C105.615 9.32955 105.291 9.76989 105.058 10.3494C104.825 10.929 104.708 11.6307 104.708 12.4545C104.708 13.2898 104.822 14 105.049 14.5852C105.282 15.1705 105.609 15.6165 106.029 15.9233C106.45 16.2301 106.941 16.3835 107.504 16.3835C107.919 16.3835 108.291 16.2983 108.62 16.1278C108.956 15.9574 109.231 15.7102 109.447 15.3864C109.669 15.0568 109.814 14.6619 109.882 14.2017H113.308C113.251 15.2017 112.978 16.0824 112.49 16.8438C112.007 17.5994 111.339 18.1903 110.487 18.6165C109.635 19.0426 108.626 19.2557 107.461 19.2557ZM122.596 5.90909V8.63636H114.712V5.90909H122.596ZM116.502 2.77273H120.132V14.9773C120.132 15.3125 120.184 15.5739 120.286 15.7614C120.388 15.9432 120.53 16.071 120.712 16.1449C120.9 16.2187 121.115 16.2557 121.36 16.2557C121.53 16.2557 121.701 16.2415 121.871 16.2131C122.042 16.179 122.172 16.1534 122.263 16.1364L122.834 18.8381C122.652 18.8949 122.397 18.9602 122.067 19.0341C121.738 19.1136 121.337 19.1619 120.865 19.179C119.99 19.2131 119.223 19.0966 118.564 18.8295C117.911 18.5625 117.402 18.1477 117.039 17.5852C116.675 17.0227 116.496 16.3125 116.502 15.4545V2.77273Z" fill="#DE6B32"/>
<path d="M140.052 6.56534C139.984 5.87784 139.691 5.34375 139.174 4.96307C138.657 4.58239 137.956 4.39204 137.069 4.39204C136.467 4.39204 135.958 4.47727 135.544 4.64773C135.129 4.8125 134.811 5.04261 134.589 5.33807C134.373 5.63352 134.265 5.96875 134.265 6.34375C134.254 6.65625 134.319 6.92898 134.461 7.16193C134.609 7.39489 134.811 7.59659 135.066 7.76705C135.322 7.93182 135.618 8.0767 135.953 8.2017C136.288 8.32102 136.646 8.4233 137.027 8.50852L138.595 8.88352C139.356 9.05398 140.055 9.28125 140.691 9.56534C141.328 9.84943 141.879 10.1989 142.345 10.6136C142.811 11.0284 143.172 11.517 143.427 12.0795C143.689 12.642 143.822 13.2869 143.828 14.0142C143.822 15.0824 143.549 16.0085 143.01 16.7926C142.475 17.571 141.703 18.1761 140.691 18.608C139.686 19.0341 138.473 19.2472 137.052 19.2472C135.643 19.2472 134.416 19.0312 133.37 18.5994C132.331 18.1676 131.518 17.5284 130.933 16.6818C130.353 15.8295 130.049 14.7756 130.021 13.5199H133.592C133.632 14.1051 133.799 14.5937 134.095 14.9858C134.396 15.3722 134.797 15.6648 135.297 15.8636C135.802 16.0568 136.373 16.1534 137.01 16.1534C137.635 16.1534 138.177 16.0625 138.637 15.8807C139.103 15.6989 139.464 15.446 139.72 15.1222C139.975 14.7983 140.103 14.4261 140.103 14.0057C140.103 13.6136 139.987 13.2841 139.754 13.017C139.527 12.75 139.191 12.5227 138.748 12.3352C138.311 12.1477 137.774 11.9773 137.137 11.8239L135.237 11.3466C133.765 10.9886 132.603 10.429 131.751 9.66761C130.899 8.90625 130.475 7.88068 130.481 6.59091C130.475 5.53409 130.757 4.6108 131.325 3.82102C131.899 3.03125 132.686 2.41477 133.686 1.97159C134.686 1.52841 135.822 1.30682 137.095 1.30682C138.39 1.30682 139.521 1.52841 140.487 1.97159C141.458 2.41477 142.214 3.03125 142.754 3.82102C143.294 4.6108 143.572 5.52557 143.589 6.56534H140.052ZM154.637 13.4261V5.90909H158.267V19H154.782V16.6222H154.645C154.35 17.3892 153.858 18.0057 153.171 18.4716C152.489 18.9375 151.657 19.1705 150.674 19.1705C149.799 19.1705 149.029 18.9716 148.364 18.5739C147.699 18.1761 147.179 17.6108 146.804 16.8778C146.435 16.1449 146.248 15.267 146.242 14.2443V5.90909H149.873V13.5966C149.878 14.3693 150.086 14.9801 150.495 15.429C150.904 15.8778 151.452 16.1023 152.14 16.1023C152.577 16.1023 152.986 16.0028 153.367 15.804C153.748 15.5994 154.054 15.2983 154.287 14.9006C154.526 14.5028 154.642 14.0114 154.637 13.4261ZM161.172 19V5.90909H164.802V19H161.172ZM162.995 4.22159C162.456 4.22159 161.993 4.04261 161.606 3.68466C161.225 3.32102 161.035 2.88636 161.035 2.38068C161.035 1.88068 161.225 1.4517 161.606 1.09375C161.993 0.730113 162.456 0.548295 162.995 0.548295C163.535 0.548295 163.995 0.730113 164.376 1.09375C164.762 1.4517 164.956 1.88068 164.956 2.38068C164.956 2.88636 164.762 3.32102 164.376 3.68466C163.995 4.04261 163.535 4.22159 162.995 4.22159ZM174.674 5.90909V8.63636H166.79V5.90909H174.674ZM168.58 2.77273H172.211V14.9773C172.211 15.3125 172.262 15.5739 172.364 15.7614C172.466 15.9432 172.608 16.071 172.79 16.1449C172.978 16.2187 173.194 16.2557 173.438 16.2557C173.608 16.2557 173.779 16.2415 173.949 16.2131C174.12 16.179 174.25 16.1534 174.341 16.1364L174.912 18.8381C174.73 18.8949 174.475 18.9602 174.145 19.0341C173.816 19.1136 173.415 19.1619 172.944 19.179C172.069 19.2131 171.301 19.0966 170.642 18.8295C169.989 18.5625 169.48 18.1477 169.117 17.5852C168.753 17.0227 168.574 16.3125 168.58 15.4545V2.77273ZM182.864 19.2557C181.517 19.2557 180.358 18.983 179.387 18.4375C178.421 17.8864 177.676 17.108 177.154 16.1023C176.631 15.0909 176.37 13.8949 176.37 12.5142C176.37 11.1676 176.631 9.9858 177.154 8.96875C177.676 7.9517 178.412 7.15909 179.361 6.59091C180.316 6.02273 181.435 5.73864 182.719 5.73864C183.583 5.73864 184.387 5.87784 185.131 6.15625C185.881 6.42898 186.534 6.84091 187.091 7.39205C187.654 7.94318 188.091 8.63636 188.404 9.47159C188.716 10.3011 188.873 11.2727 188.873 12.3864V13.3835H177.819V11.1335H185.455C185.455 10.6108 185.341 10.1477 185.114 9.74432C184.887 9.34091 184.571 9.02557 184.168 8.7983C183.77 8.56534 183.307 8.44886 182.779 8.44886C182.228 8.44886 181.739 8.5767 181.313 8.83239C180.892 9.08239 180.563 9.42045 180.324 9.84659C180.086 10.267 179.963 10.7358 179.958 11.2528V13.392C179.958 14.0398 180.077 14.5994 180.316 15.071C180.56 15.5426 180.904 15.9062 181.347 16.1619C181.79 16.4176 182.316 16.5455 182.924 16.5455C183.327 16.5455 183.696 16.4886 184.032 16.375C184.367 16.2614 184.654 16.0909 184.892 15.8636C185.131 15.6364 185.313 15.358 185.438 15.0284L188.796 15.25C188.625 16.0568 188.276 16.7614 187.748 17.3636C187.225 17.9602 186.549 18.4261 185.719 18.7614C184.895 19.0909 183.944 19.2557 182.864 19.2557Z" fill="black"/>
</svg>
