<svg width="99" height="99" viewBox="0 0 99 99" fill="none" xmlns="http://www.w3.org/2000/svg">
<g filter="url(#filter0_d_101_56)">
<path d="M79.3057 54.2749V62.4387C79.3057 75.4152 71.5697 83.1512 58.5931 83.1512H28.7186C19.6279 83.1512 13.0684 79.3367 10.0025 72.5633L10.3946 72.2781L27.9343 60.5136C29.3495 59.5774 31.028 59.1205 32.7224 59.2103C34.4169 59.3002 36.0377 59.932 37.3459 61.0127L38.558 62.0109C39.9768 63.1698 41.7526 63.8028 43.5846 63.8028C45.4166 63.8028 47.1923 63.1698 48.6112 62.0109L63.4415 49.2839C64.8604 48.1251 66.6361 47.4921 68.4681 47.4921C70.3001 47.4921 72.0759 48.1251 73.4948 49.2839L79.3057 54.2749Z" fill="url(#paint0_linear_101_56)"/>
<path opacity="0.4" d="M79.3055 32.4465V32.5641V54.2748L73.4946 49.2839C72.0757 48.125 70.3 47.492 68.468 47.492C66.636 47.492 64.8603 48.125 63.4414 49.2839L48.6111 62.0108C47.1922 63.1697 45.4165 63.8027 43.5844 63.8027C41.7524 63.8027 39.9767 63.1697 38.5578 62.0108L37.3457 61.0126C36.0375 59.932 34.4168 59.3001 32.7223 59.2103C31.0279 59.1204 29.3493 59.5773 27.9342 60.5135L10.3945 72.278L10.0023 72.5632C8.60961 69.3733 7.92836 65.9184 8.00596 62.4386V32.5641C8.00596 19.5876 15.742 11.8516 28.7185 11.8516H58.593H58.7107C58.1668 12.9981 57.8947 14.2547 57.9157 15.5235V26.0045C57.8256 26.9774 57.951 27.9581 58.2829 28.877C58.6147 29.796 59.1449 30.6305 59.8358 31.3213C60.5266 32.0122 61.3611 32.5424 62.2801 32.8742C63.199 33.2061 64.1797 33.3315 65.1526 33.2414H75.6336C76.9024 33.2624 78.159 32.9904 79.3055 32.4465Z" fill="url(#paint1_linear_101_56)"/>
<path d="M41.4278 33.2481C41.4278 34.9227 40.9312 36.5596 40.0009 37.952C39.0705 39.3444 37.7482 40.4296 36.2011 41.0704C34.654 41.7112 32.9516 41.8789 31.3092 41.5522C29.6668 41.2255 28.1581 40.4191 26.974 39.235C25.7899 38.0509 24.9835 36.5423 24.6568 34.8999C24.3301 33.2575 24.4978 31.5551 25.1386 30.008C25.7795 28.4609 26.8647 27.1385 28.2571 26.2082C29.6494 25.2778 31.2864 24.7812 32.961 24.7812C35.2059 24.7831 37.3584 25.6758 38.9458 27.2632C40.5333 28.8506 41.4259 31.0031 41.4278 33.2481Z" fill="url(#paint2_linear_101_56)"/>
<path d="M75.634 8.29002H65.1529C64.1801 8.2 63.1993 8.32537 62.2804 8.65722C61.3615 8.98908 60.527 9.51927 59.8361 10.2101C59.1453 10.901 58.6151 11.7355 58.2832 12.6544C57.9514 13.5733 57.826 14.5541 57.916 15.5269V26.008C57.826 26.9808 57.9514 27.9616 58.2832 28.8805C58.6151 29.7994 59.1453 30.6339 59.8361 31.3248C60.527 32.0156 61.3615 32.5458 62.2804 32.8777C63.1993 33.2095 64.1801 33.3349 65.1529 33.2449H75.634C76.6068 33.3349 77.5876 33.2095 78.5065 32.8777C79.4254 32.5458 80.2599 32.0156 80.9508 31.3248C81.6416 30.6339 82.1718 29.7994 82.5037 28.8805C82.8355 27.9616 82.9609 26.9808 82.8709 26.008V15.5269C82.9609 14.5541 82.8355 13.5733 82.5037 12.6544C82.1718 11.7355 81.6416 10.901 80.9508 10.2101C80.2599 9.51927 79.4254 8.98908 78.5065 8.65722C77.5876 8.32537 76.6068 8.2 75.634 8.29002ZM78.9851 22.3004C78.5897 22.6814 78.0715 22.909 77.5234 22.9421H72.4968L72.5324 27.8974C72.5122 28.4765 72.2696 29.0255 71.8551 29.4303C71.4653 29.8149 70.941 30.0323 70.3935 30.0364C70.1126 30.0364 69.8344 29.9811 69.5749 29.8736C69.3154 29.7661 69.0796 29.6085 68.881 29.4099C68.6823 29.2113 68.5248 28.9755 68.4173 28.716C68.3098 28.4564 68.2545 28.1783 68.2545 27.8974V22.9064L63.2635 22.9421C62.6929 22.9327 62.1489 22.6995 61.7488 22.2927C61.3486 21.8859 61.1244 21.3381 61.1245 20.7674C61.1245 20.2002 61.3499 19.6561 61.751 19.255C62.1521 18.8538 62.6962 18.6285 63.2635 18.6285L68.2545 18.6641V13.6731C68.2545 13.1058 68.4798 12.5618 68.881 12.1606C69.2821 11.7595 69.8262 11.5342 70.3935 11.5342C70.9608 11.5342 71.5048 11.7595 71.906 12.1606C72.3071 12.5618 72.5324 13.1058 72.5324 13.6731L72.4968 18.6285H77.5234C77.8043 18.6285 78.0825 18.6838 78.342 18.7913C78.6015 18.8988 78.8373 19.0563 79.0359 19.255C79.2345 19.4536 79.3921 19.6894 79.4996 19.9489C79.6071 20.2084 79.6624 20.4866 79.6624 20.7674C79.6257 21.3426 79.3856 21.886 78.9851 22.3004Z" fill="url(#paint3_linear_101_56)"/>
</g>
<defs>
<filter id="filter0_d_101_56" x="0.116222" y="0.377941" width="98.5505" height="98.5409" filterUnits="userSpaceOnUse" color-interpolation-filters="sRGB">
<feFlood flood-opacity="0" result="BackgroundImageFix"/>
<feColorMatrix in="SourceAlpha" type="matrix" values="0 0 0 0 0 0 0 0 0 0 0 0 0 0 0 0 0 0 127 0" result="hardAlpha"/>
<feOffset dx="3.94189" dy="3.94189"/>
<feGaussianBlur stdDeviation="5.91283"/>
<feComposite in2="hardAlpha" operator="out"/>
<feColorMatrix type="matrix" values="0 0 0 0 0 0 0 0 0 0 0 0 0 0 0 0 0 0 0.25 0"/>
<feBlend mode="normal" in2="BackgroundImageFix" result="effect1_dropShadow_101_56"/>
<feBlend mode="normal" in="SourceGraphic" in2="effect1_dropShadow_101_56" result="shape"/>
</filter>
<linearGradient id="paint0_linear_101_56" x1="10.0025" y1="65.3228" x2="79.3057" y2="65.3228" gradientUnits="userSpaceOnUse">
<stop stop-color="#FF9749"/>
<stop offset="1" stop-color="#EF7237"/>
</linearGradient>
<linearGradient id="paint1_linear_101_56" x1="8.00596" y1="42.2074" x2="6.22347" y2="42.2074" gradientUnits="userSpaceOnUse">
<stop stop-color="#FF6F00"/>
<stop offset="1" stop-color="#B13B00"/>
</linearGradient>
<linearGradient id="paint2_linear_101_56" x1="24.4941" y1="33.2481" x2="41.4278" y2="33.2481" gradientUnits="userSpaceOnUse">
<stop stop-color="#EE6F35"/>
<stop offset="1" stop-color="#FF9849"/>
</linearGradient>
<linearGradient id="paint3_linear_101_56" x1="57.916" y1="20.7674" x2="82.8709" y2="20.7674" gradientUnits="userSpaceOnUse">
<stop stop-color="#FF9849"/>
<stop offset="1" stop-color="#EE6F35"/>
</linearGradient>
</defs>
</svg>
