<svg width="96" height="67" viewBox="0 0 96 67" fill="none" xmlns="http://www.w3.org/2000/svg">
<path fill-rule="evenodd" clip-rule="evenodd" d="M64.1192 61.4339C65.8115 52.0764 67.2148 42.5665 68.5416 33.1558C63.9234 35.6973 60.0046 38.736 55.9381 42.0986C53.2794 38.3609 47.9734 33.5147 44.17 30.9878C40.3192 35.4259 37.5952 39.4351 34.6492 44.3917C30.8287 41.7899 27.0453 39.8111 22.6812 38.2336C24.7537 46.9046 27.3868 55.3832 30.5034 63.7337C34.9013 63.038 38.6379 61.5524 43.0794 61.0902C50.7118 60.2953 56.444 60.5638 64.1192 61.4339Z" fill="#FBE6DC" stroke="#DE6B32" stroke-width="5" stroke-miterlimit="1.5" stroke-linecap="round" stroke-linejoin="round"/>
<path fill-rule="evenodd" clip-rule="evenodd" d="M3.08688 35.8008C5.44281 36.4834 7.78154 37.2534 10.1502 37.8888L3.08688 35.8008Z" fill="#FBE6DC"/>
<path d="M3.08688 35.8008C5.44281 36.4834 7.78154 37.2534 10.1502 37.8888" stroke="#DE6B32" stroke-width="5" stroke-miterlimit="1.5" stroke-linecap="round" stroke-linejoin="round"/>
<path fill-rule="evenodd" clip-rule="evenodd" d="M23.4559 8.4751C24.607 10.9458 25.9471 13.3199 27.1332 15.7717L23.4559 8.4751Z" fill="#FBE6DC"/>
<path d="M23.4559 8.4751C24.607 10.9458 25.9471 13.3199 27.1332 15.7717" stroke="#DE6B32" stroke-width="5" stroke-miterlimit="1.5" stroke-linecap="round" stroke-linejoin="round"/>
<path fill-rule="evenodd" clip-rule="evenodd" d="M54.3347 13.4853C56.0237 10.1792 57.3718 6.71241 59.052 3.40337L54.3347 13.4853Z" fill="#FBE6DC"/>
<path d="M54.3347 13.4853C56.0237 10.1792 57.3718 6.71241 59.052 3.40337" stroke="#DE6B32" stroke-width="5" stroke-miterlimit="1.5" stroke-linecap="round" stroke-linejoin="round"/>
<path fill-rule="evenodd" clip-rule="evenodd" d="M83.6642 32.1188C86.9032 30.3821 90.2262 28.6646 93.3002 26.6435L83.6642 32.1188Z" fill="#FBE6DC"/>
<path d="M83.6642 32.1188C86.9032 30.3821 90.2262 28.6646 93.3002 26.6435" stroke="#DE6B32" stroke-width="5" stroke-miterlimit="1.5" stroke-linecap="round" stroke-linejoin="round"/>
</svg>
