<svg width="127" height="171" viewBox="0 0 127 171" fill="none" xmlns="http://www.w3.org/2000/svg">
<g opacity="0.2">
<ellipse cx="4.16315" cy="3.77117" rx="3.38775" ry="3.77117" fill="#9E4C24"/>
<ellipse cx="33.9385" cy="3.77117" rx="3.38775" ry="3.77117" fill="#9E4C24"/>
<ellipse cx="63.7139" cy="3.77117" rx="3.38775" ry="3.77117" fill="#9E4C24"/>
<ellipse cx="93.4893" cy="3.77117" rx="3.38775" ry="3.77117" fill="#9E4C24"/>
<ellipse cx="123.265" cy="3.77117" rx="3.38775" ry="3.77117" fill="#9E4C24"/>
<ellipse cx="4.16315" cy="36.3135" rx="3.38775" ry="3.77117" fill="#9E4C24"/>
<ellipse cx="33.9385" cy="36.3135" rx="3.38775" ry="3.77117" fill="#9E4C24"/>
<ellipse cx="63.7139" cy="36.3135" rx="3.38775" ry="3.77117" fill="#9E4C24"/>
<ellipse cx="93.4893" cy="36.3135" rx="3.38775" ry="3.77117" fill="#9E4C24"/>
<ellipse cx="123.265" cy="36.3135" rx="3.38775" ry="3.77117" fill="#9E4C24"/>
<ellipse cx="4.16315" cy="68.8559" rx="3.38775" ry="3.77117" fill="#9E4C24"/>
<ellipse cx="33.9385" cy="68.8559" rx="3.38775" ry="3.77117" fill="#9E4C24"/>
<ellipse cx="63.7139" cy="68.8559" rx="3.38775" ry="3.77117" fill="#9E4C24"/>
<ellipse cx="93.4893" cy="68.8559" rx="3.38775" ry="3.77117" fill="#9E4C24"/>
<ellipse cx="123.265" cy="68.8559" rx="3.38775" ry="3.77117" fill="#9E4C24"/>
<ellipse cx="4.16315" cy="101.398" rx="3.38775" ry="3.77117" fill="#9E4C24"/>
<ellipse cx="33.9385" cy="101.398" rx="3.38775" ry="3.77117" fill="#9E4C24"/>
<ellipse cx="63.7139" cy="101.398" rx="3.38775" ry="3.77117" fill="#9E4C24"/>
<ellipse cx="93.4893" cy="101.398" rx="3.38775" ry="3.77117" fill="#9E4C24"/>
<ellipse cx="123.265" cy="101.398" rx="3.38775" ry="3.77117" fill="#9E4C24"/>
<ellipse cx="4.16315" cy="133.941" rx="3.38775" ry="3.77117" fill="#9E4C24"/>
<ellipse cx="33.9385" cy="133.941" rx="3.38775" ry="3.77117" fill="#9E4C24"/>
<ellipse cx="63.7139" cy="133.941" rx="3.38775" ry="3.77117" fill="#9E4C24"/>
<ellipse cx="93.4893" cy="133.941" rx="3.38775" ry="3.77117" fill="#9E4C24"/>
<ellipse cx="123.265" cy="133.941" rx="3.38775" ry="3.77117" fill="#9E4C24"/>
<ellipse cx="4.16315" cy="166.483" rx="3.38775" ry="3.77117" fill="#9E4C24"/>
<ellipse cx="33.9385" cy="166.483" rx="3.38775" ry="3.77117" fill="#9E4C24"/>
<ellipse cx="63.7139" cy="166.483" rx="3.38775" ry="3.77117" fill="#9E4C24"/>
<ellipse cx="93.4893" cy="166.483" rx="3.38775" ry="3.77117" fill="#9E4C24"/>
<ellipse cx="123.265" cy="166.483" rx="3.38775" ry="3.77117" fill="#9E4C24"/>
</g>
</svg>
