<svg width="115" height="52" viewBox="0 0 115 52" fill="none" xmlns="http://www.w3.org/2000/svg">
<g filter="url(#filter0_d_36_983)">
<path d="M6 15.6987L82.8374 4.96348L106.062 16.4189L86.8664 33.801L10.029 44.5363L6 15.6987Z" fill="#E5895B"/>
<path d="M5.79244 14.2132L4.30687 14.4207L4.51443 15.9063L8.54344 44.7438L8.75099 46.2294L10.2366 46.0219L87.0739 35.2866L87.5311 35.2227L87.8732 34.9129L107.069 17.5308L108.705 16.0497L106.726 15.0736L83.5009 3.61822L83.0869 3.41404L82.6298 3.47791L5.79244 14.2132Z" stroke="white" stroke-width="3"/>
</g>
<path d="M11.8572 27.1066L11.6237 25.4354L19.4979 24.3352L19.7314 26.0065L16.7961 26.4166L17.9021 34.3329L15.8985 34.6128L14.7925 26.6965L11.8572 27.1066ZM29.8371 27.7781C29.9832 28.8236 29.9093 29.7407 29.6154 30.5295C29.3246 31.3179 28.8661 31.9531 28.2398 32.4352C27.6162 32.9137 26.8815 33.212 26.0357 33.3302C25.1837 33.4492 24.392 33.3625 23.6607 33.0701C22.9294 32.7778 22.3159 32.2923 21.8202 31.6139C21.3245 30.9354 21.0038 30.0749 20.8581 29.0325C20.7121 27.987 20.7844 27.0701 21.0752 26.2817C21.366 25.4934 21.8231 24.8599 22.4468 24.3814C23.0699 23.8998 23.8075 23.5995 24.6596 23.4804C25.5053 23.3623 26.2939 23.4494 27.0252 23.7418C27.7592 24.0306 28.374 24.5142 28.8698 25.1927C29.3686 25.8708 29.691 26.7325 29.8371 27.7781ZM27.782 28.0652C27.6873 27.3879 27.5061 26.831 27.2383 26.3943C26.9736 25.9572 26.6419 25.644 26.2431 25.4547C25.8444 25.2654 25.4 25.205 24.9101 25.2734C24.4201 25.3419 24.0093 25.5218 23.6777 25.8131C23.3461 26.1044 23.1114 26.4968 22.9735 26.9902C22.8387 27.4831 22.8187 28.0682 22.9133 28.7454C23.0079 29.4227 23.1876 29.9798 23.4523 30.417C23.7201 30.8536 24.0534 31.1666 24.4521 31.3559C24.8508 31.5452 25.2952 31.6056 25.7852 31.5372C26.2752 31.4687 26.686 31.2888 27.0175 30.9975C27.3491 30.7062 27.5823 30.314 27.7171 29.8211C27.855 29.3277 27.8766 28.7424 27.782 28.0652ZM40.1491 26.3373C40.2952 27.3828 40.2213 28.3 39.9274 29.0888C39.6366 29.8772 39.1781 30.5124 38.5518 30.9944C37.9282 31.4729 37.1935 31.7713 36.3477 31.8894C35.4957 32.0085 34.704 31.9218 33.9727 31.6294C33.2414 31.337 32.6279 30.8516 32.1322 30.1731C31.6365 29.4946 31.3158 28.6342 31.1701 27.5918C31.0241 26.5463 31.0964 25.6294 31.3872 24.841C31.678 24.0526 32.1352 23.4192 32.7588 22.9407C33.3819 22.4591 34.1195 22.1588 34.9716 22.0397C35.8173 21.9215 36.6059 22.0087 37.3372 22.301C38.0712 22.5898 38.686 23.0735 39.1818 23.752C39.6806 24.43 40.003 25.2918 40.1491 26.3373ZM38.094 26.6245C37.9993 25.9472 37.8181 25.3902 37.5503 24.9536C37.2856 24.5165 36.9539 24.2033 36.5551 24.014C36.1564 23.8247 35.712 23.7642 35.2221 23.8327C34.7321 23.9012 34.3213 24.0811 33.9897 24.3724C33.6581 24.6637 33.4234 25.0561 33.2855 25.5494C33.1507 26.0423 33.1307 26.6274 33.2253 27.3047C33.3199 27.9819 33.4996 28.5391 33.7643 28.9762C34.0321 29.4129 34.3654 29.7259 34.7641 29.9152C35.1628 30.1045 35.6072 30.1649 36.0972 30.0964C36.5872 30.028 36.998 29.8481 37.3295 29.5568C37.6611 29.2654 37.8943 28.8733 38.0291 28.3804C38.167 27.887 38.1886 27.3017 38.094 26.6245ZM42.3204 30.9213L40.9809 21.3338L43.008 21.0506L44.114 28.9668L48.2243 28.3926L48.4578 30.0638L42.3204 30.9213ZM59.531 18.742L60.8706 28.3296L59.1197 28.5742L54.1055 23.1226L54.0353 23.1324L54.8783 29.1668L52.8513 29.45L51.5118 19.8625L53.2907 19.6139L58.2715 25.0654L58.3558 25.0536L57.5134 19.0239L59.531 18.742ZM70.686 22.0709C70.8321 23.1164 70.7582 24.0336 70.4643 24.8224C70.1735 25.6107 69.715 26.2459 69.0887 26.728C68.4651 27.2065 67.7304 27.5048 66.8846 27.623C66.0326 27.742 65.2409 27.6554 64.5096 27.363C63.7783 27.0706 63.1648 26.5852 62.6691 25.9067C62.1734 25.2282 61.8527 24.3678 61.7071 23.3254C61.561 22.2799 61.6333 21.3629 61.9241 20.5746C62.2149 19.7862 62.6721 19.1528 63.2957 18.6743C63.9188 18.1926 64.6564 17.8923 65.5085 17.7733C66.3542 17.6551 67.1428 17.7422 67.8741 18.0346C68.6081 18.3234 69.223 18.8071 69.7187 19.4855C70.2175 20.1636 70.5399 21.0254 70.686 22.0709ZM68.6309 22.358C68.5363 21.6808 68.355 21.1238 68.0872 20.6871C67.8225 20.25 67.4908 19.9368 67.092 19.7475C66.6933 19.5582 66.249 19.4978 65.759 19.5663C65.269 19.6347 64.8582 19.8146 64.5266 20.1059C64.195 20.3973 63.9603 20.7896 63.8224 21.283C63.6876 21.7759 63.6676 22.361 63.7622 23.0382C63.8568 23.7155 64.0365 24.2727 64.3012 24.7098C64.569 25.1465 64.9023 25.4595 65.301 25.6487C65.6998 25.838 66.1441 25.8985 66.6341 25.83C67.1241 25.7615 67.5349 25.5817 67.8664 25.2903C68.198 24.999 68.4312 24.6069 68.566 24.1139C68.7039 23.6206 68.7255 23.0353 68.6309 22.358ZM75.8523 26.2364L75.6482 24.7758L78.6195 21.1391C78.8705 20.8176 79.0786 20.5308 79.2438 20.2786C79.4122 20.026 79.5328 19.7849 79.6057 19.5551C79.6782 19.3223 79.6967 19.0794 79.6614 18.8266C79.6222 18.5458 79.5244 18.3128 79.3681 18.1278C79.2114 17.9397 79.0146 17.8065 78.7777 17.7283C78.5404 17.6469 78.2814 17.6258 78.0005 17.665C77.7071 17.706 77.4595 17.8011 77.2576 17.9502C77.0557 18.0993 76.9109 18.293 76.8233 18.5311C76.7356 18.7693 76.7132 19.0413 76.7559 19.3471L74.8318 19.616C74.7442 18.9886 74.8101 18.4242 75.0296 17.9226C75.2491 17.421 75.5971 17.0081 76.0736 16.6838C76.5501 16.3595 77.1223 16.1507 77.7902 16.0574C78.4768 15.9614 79.0914 15.9996 79.6342 16.172C80.1796 16.3408 80.6242 16.6191 80.9679 17.007C81.3116 17.3949 81.5221 17.8651 81.5993 18.4175C81.6499 18.7795 81.628 19.1469 81.5337 19.5196C81.4426 19.8919 81.246 20.3187 80.9442 20.8C80.6419 21.2781 80.2033 21.8628 79.6285 22.554L78.4204 24.1212L78.4296 24.1868L82.4556 23.6243L82.6872 25.2815L75.8523 26.2364Z" fill="white"/>
<defs>
<filter id="filter0_d_36_983" x="0.949883" y="0.200758" width="113.725" height="51.0495" filterUnits="userSpaceOnUse" color-interpolation-filters="sRGB">
<feFlood flood-opacity="0" result="BackgroundImageFix"/>
<feColorMatrix in="SourceAlpha" type="matrix" values="0 0 0 0 0 0 0 0 0 0 0 0 0 0 0 0 0 0 127 0" result="hardAlpha"/>
<feOffset dx="0.831933" dy="0.831933"/>
<feGaussianBlur stdDeviation="1.2479"/>
<feComposite in2="hardAlpha" operator="out"/>
<feColorMatrix type="matrix" values="0 0 0 0 0 0 0 0 0 0 0 0 0 0 0 0 0 0 0.25 0"/>
<feBlend mode="normal" in2="BackgroundImageFix" result="effect1_dropShadow_36_983"/>
<feBlend mode="normal" in="SourceGraphic" in2="effect1_dropShadow_36_983" result="shape"/>
</filter>
</defs>
</svg>
