<svg width="115" height="61" viewBox="0 0 115 61" fill="none" xmlns="http://www.w3.org/2000/svg">
<g filter="url(#filter0_d_36_990)">
<path d="M107.163 34.1255L32.2228 54.2056L7.76808 45.6858L24.6866 26.0801L99.6266 6L107.163 34.1255Z" fill="#E5895B"/>
<path d="M107.551 35.5744L109 35.1861L108.612 33.7373L101.076 5.61177L100.687 4.16288L99.2384 4.55111L24.2983 24.6312L23.8525 24.7507L23.5509 25.1002L6.63246 44.7059L5.19089 46.3764L7.27459 47.1023L31.7293 55.6221L32.1651 55.774L32.611 55.6545L107.551 35.5744Z" stroke="white" stroke-width="3"/>
</g>
<path d="M30.0491 37.1792L29.6123 35.5492L37.292 33.4914L37.7288 35.1214L34.866 35.8885L36.9348 43.6093L34.9806 44.1329L32.9118 36.4121L30.0491 37.1792ZM47.9755 35.6399C48.2488 36.6596 48.2879 37.5789 48.093 38.3978C47.9011 39.2159 47.524 39.9025 46.9616 40.4578C46.4014 41.0092 45.7088 41.3954 44.8839 41.6164C44.0529 41.8391 43.2566 41.8502 42.495 41.6497C41.7333 41.4492 41.0649 41.0427 40.4897 40.4302C39.9145 39.8177 39.4907 39.0031 39.2183 37.9864C38.945 36.9667 38.9044 36.0478 39.0962 35.2297C39.2881 34.4116 39.6641 33.7269 40.2243 33.1755C40.7837 32.6211 41.4789 32.2326 42.3099 32.0099C43.1348 31.7889 43.928 31.7786 44.6897 31.979C45.4536 32.1756 46.1231 32.5802 46.6983 33.1927C47.2766 33.8045 47.7023 34.6202 47.9755 35.6399ZM45.9711 36.177C45.7941 35.5164 45.546 34.9859 45.2266 34.5854C44.9102 34.1841 44.5426 33.9139 44.1237 33.775C43.7047 33.636 43.2563 33.6306 42.7784 33.7586C42.3005 33.8867 41.9149 34.1156 41.6216 34.4454C41.3283 34.7752 41.1434 35.1934 41.0671 35.6999C40.9938 36.2057 41.0457 36.7888 41.2227 37.4493C41.3997 38.1098 41.6463 38.6408 41.9626 39.0421C42.282 39.4426 42.6512 39.7124 43.0701 39.8513C43.4891 39.9903 43.9375 39.9957 44.4154 39.8677C44.8932 39.7396 45.2789 39.5107 45.5722 39.1809C45.8655 38.8511 46.0488 38.4333 46.1221 37.9276C46.1984 37.421 46.1481 36.8375 45.9711 36.177ZM58.0329 32.945C58.3061 33.9647 58.3453 34.884 58.1504 35.7029C57.9585 36.521 57.5814 37.2077 57.0189 37.7629C56.4587 38.3143 55.7662 38.7005 54.9413 38.9215C54.1103 39.1442 53.314 39.1553 52.5523 38.9548C51.7907 38.7544 51.1223 38.3479 50.5471 37.7353C49.9719 37.1228 49.5481 36.3082 49.2756 35.2915C49.0024 34.2718 48.9617 33.3529 49.1536 32.5349C49.3455 31.7168 49.7215 31.032 50.2817 30.4807C50.8411 29.9262 51.5363 29.5377 52.3672 29.315C53.1921 29.094 53.9854 29.0837 54.7471 29.2842C55.511 29.4808 56.1805 29.8853 56.7557 30.4979C57.3339 31.1096 57.7597 31.9253 58.0329 32.945ZM56.0285 33.4821C55.8515 32.8216 55.6033 32.2911 55.284 31.8905C54.9676 31.4892 54.6 31.219 54.181 31.0801C53.7621 30.9411 53.3137 30.9357 52.8358 31.0637C52.3579 31.1918 51.9723 31.4207 51.679 31.7505C51.3856 32.0803 51.2008 32.4985 51.1245 33.0051C51.0512 33.5108 51.1031 34.0939 51.28 34.7545C51.457 35.415 51.7037 35.9459 52.02 36.3472C52.3394 36.7478 52.7086 37.0175 53.1275 37.1565C53.5464 37.2954 53.9948 37.3009 54.4727 37.1728C54.9506 37.0448 55.3362 36.8158 55.6296 36.486C55.9229 36.1562 56.1062 35.7385 56.1795 35.2327C56.2558 34.7262 56.2055 34.1426 56.0285 33.4821ZM60.7502 37.228L58.2446 27.8772L60.2216 27.3475L62.2904 35.0683L66.2992 33.9941L66.736 35.6241L60.7502 37.228ZM76.3367 23.0295L78.8422 32.3803L77.1346 32.8378L71.4895 28.0425L71.421 28.0609L72.998 33.9462L71.021 34.476L68.5154 25.1252L70.2505 24.6603L75.8624 29.4595L75.9446 29.4375L74.3688 23.5567L76.3367 23.0295ZM87.8158 24.9647C88.089 25.9844 88.1282 26.9037 87.9333 27.7226C87.7414 28.5407 87.3643 29.2274 86.8018 29.7826C86.2416 30.334 85.5491 30.7202 84.7242 30.9412C83.8932 31.1639 83.0969 31.175 82.3352 30.9745C81.5736 30.7741 80.9051 30.3676 80.3299 29.755C79.7547 29.1425 79.3309 28.3279 79.0585 27.3112C78.7853 26.2915 78.7446 25.3726 78.9365 24.5546C79.1283 23.7365 79.5044 23.0517 80.0646 22.5004C80.624 21.9459 81.3191 21.5574 82.1501 21.3347C82.975 21.1137 83.7683 21.1034 84.5299 21.3039C85.2938 21.5005 85.9634 21.905 86.5386 22.5176C87.1168 23.1293 87.5425 23.945 87.8158 24.9647ZM85.8114 25.5018C85.6344 24.8413 85.3862 24.3108 85.0668 23.9102C84.7505 23.5089 84.3829 23.2388 83.9639 23.0998C83.545 22.9608 83.0966 22.9554 82.6187 23.0834C82.1408 23.2115 81.7552 23.4404 81.4619 23.7702C81.1685 24.1 80.9837 24.5182 80.9074 25.0248C80.8341 25.5305 80.8859 26.1136 81.0629 26.7742C81.2399 27.4347 81.4866 27.9656 81.8029 28.3669C82.1223 28.7675 82.4914 29.0372 82.9104 29.1762C83.3293 29.3151 83.7777 29.3206 84.2556 29.1925C84.7335 29.0645 85.1191 28.8355 85.4124 28.5057C85.7058 28.1759 85.8891 27.7582 85.9624 27.2524C86.0387 26.7459 85.9884 26.1623 85.8114 25.5018ZM95.0166 18.0242L97.5222 27.375L95.5452 27.9047L93.5425 20.4305L93.4877 20.4452L91.706 22.3613L91.2362 20.608L93.1583 18.5221L95.0166 18.0242Z" fill="white"/>
<defs>
<filter id="filter0_d_36_990" x="0.949843" y="0.66194" width="113.215" height="60.0081" filterUnits="userSpaceOnUse" color-interpolation-filters="sRGB">
<feFlood flood-opacity="0" result="BackgroundImageFix"/>
<feColorMatrix in="SourceAlpha" type="matrix" values="0 0 0 0 0 0 0 0 0 0 0 0 0 0 0 0 0 0 127 0" result="hardAlpha"/>
<feOffset dx="0.831933" dy="0.831933"/>
<feGaussianBlur stdDeviation="1.2479"/>
<feComposite in2="hardAlpha" operator="out"/>
<feColorMatrix type="matrix" values="0 0 0 0 0 0 0 0 0 0 0 0 0 0 0 0 0 0 0.25 0"/>
<feBlend mode="normal" in2="BackgroundImageFix" result="effect1_dropShadow_36_990"/>
<feBlend mode="normal" in="SourceGraphic" in2="effect1_dropShadow_36_990" result="shape"/>
</filter>
</defs>
</svg>
