<svg width="162" height="77" viewBox="0 0 162 77" fill="none" xmlns="http://www.w3.org/2000/svg">
<g filter="url(#filter0_d_36_1005)">
<rect x="22" y="14" width="118" height="33" fill="#E5895B" stroke="white" stroke-width="4"/>
<path d="M45.4013 24.8182L45.4013 35L43.5419 35L39.1122 28.5916L39.0376 28.5916L39.0376 35L36.8849 35L36.8849 24.8182L38.7741 24.8182L43.169 31.2216L43.2585 31.2216L43.2585 24.8182L45.4013 24.8182ZM49.1399 35L49.1399 24.8182L56.0007 24.8182L56.0007 26.593L51.2926 26.593L51.2926 29.0192L55.6477 29.0192L55.6477 30.794L51.2926 30.794L51.2926 33.2251L56.0205 33.2251L56.0205 35L49.1399 35ZM61.964 35L59.0507 24.8182L61.4022 24.8182L63.0876 31.8928L63.1721 31.8928L65.0315 24.8182L67.045 24.8182L68.8994 31.9077L68.9889 31.9077L70.6743 24.8182L73.0258 24.8182L70.1125 35L68.0145 35L66.0755 28.343L65.996 28.343L64.062 35L61.964 35ZM80.9504 26.593L80.9504 24.8182L89.3127 24.8182L89.3127 26.593L86.1955 26.593L86.1955 35L84.0676 35L84.0676 26.593L80.9504 26.593ZM101.541 29.9091C101.541 31.0194 101.331 31.964 100.91 32.7429C100.492 33.5218 99.9224 34.1167 99.1999 34.5277C98.4806 34.9354 97.6719 35.1392 96.7737 35.1392C95.8689 35.1392 95.0569 34.9337 94.3376 34.5227C93.6184 34.1117 93.05 33.5168 92.6324 32.7379C92.2148 31.959 92.006 31.0161 92.006 29.9091C92.006 28.7988 92.2148 27.8542 92.6324 27.0753C93.05 26.2964 93.6184 25.7031 94.3376 25.2955C95.0569 24.8845 95.8689 24.679 96.7737 24.679C97.6719 24.679 98.4806 24.8845 99.1999 25.2955C99.9224 25.7031 100.492 26.2964 100.91 27.0753C101.331 27.8542 101.541 28.7988 101.541 29.9091ZM99.3589 29.9091C99.3589 29.1899 99.2512 28.5833 99.0358 28.0895C98.8237 27.5956 98.5237 27.2211 98.1359 26.9659C97.7482 26.7107 97.2941 26.5831 96.7737 26.5831C96.2534 26.5831 95.7993 26.7107 95.4115 26.9659C95.0237 27.2211 94.7221 27.5956 94.5067 28.0895C94.2946 28.5833 94.1885 29.1899 94.1885 29.9091C94.1885 30.6283 94.2946 31.2349 94.5067 31.7287C94.7221 32.2225 95.0237 32.5971 95.4115 32.8523C95.7993 33.1075 96.2534 33.2351 96.7737 33.2351C97.2941 33.2351 97.7482 33.1075 98.1359 32.8523C98.5237 32.5971 98.8237 32.2225 99.0358 31.7287C99.2512 31.2349 99.3589 30.6283 99.3589 29.9091ZM114.453 29.9091C114.453 31.0194 114.242 31.964 113.821 32.7429C113.404 33.5218 112.834 34.1167 112.111 34.5277C111.392 34.9354 110.583 35.1392 109.685 35.1392C108.78 35.1392 107.968 34.9337 107.249 34.5227C106.53 34.1117 105.961 33.5168 105.544 32.7379C105.126 31.959 104.917 31.0161 104.917 29.9091C104.917 28.7988 105.126 27.8542 105.544 27.0753C105.961 26.2964 106.53 25.7031 107.249 25.2955C107.968 24.8845 108.78 24.679 109.685 24.679C110.583 24.679 111.392 24.8845 112.111 25.2955C112.834 25.7031 113.404 26.2964 113.821 27.0753C114.242 27.8542 114.453 28.7988 114.453 29.9091ZM112.27 29.9091C112.27 29.1899 112.162 28.5833 111.947 28.0895C111.735 27.5956 111.435 27.2211 111.047 26.9659C110.659 26.7107 110.205 26.5831 109.685 26.5831C109.165 26.5831 108.71 26.7107 108.323 26.9659C107.935 27.2211 107.633 27.5956 107.418 28.0895C107.206 28.5833 107.1 29.1899 107.1 29.9091C107.1 30.6283 107.206 31.2349 107.418 31.7287C107.633 32.2225 107.935 32.5971 108.323 32.8523C108.71 33.1075 109.165 33.2351 109.685 33.2351C110.205 33.2351 110.659 33.1075 111.047 32.8523C111.435 32.5971 111.735 32.2225 111.947 31.7287C112.162 31.2349 112.27 30.6283 112.27 29.9091ZM118.007 35L118.007 24.8182L120.16 24.8182L120.16 33.2251L124.525 33.2251L124.525 35L118.007 35Z" fill="white"/>
</g>
<defs>
<filter id="filter0_d_36_1005" x="0" y="0" width="162" height="77" filterUnits="userSpaceOnUse" color-interpolation-filters="sRGB">
<feFlood flood-opacity="0" result="BackgroundImageFix"/>
<feColorMatrix in="SourceAlpha" type="matrix" values="0 0 0 0 0 0 0 0 0 0 0 0 0 0 0 0 0 0 127 0" result="hardAlpha"/>
<feOffset dy="8"/>
<feGaussianBlur stdDeviation="10"/>
<feComposite in2="hardAlpha" operator="out"/>
<feColorMatrix type="matrix" values="0 0 0 0 0 0 0 0 0 0 0 0 0 0 0 0 0 0 0.1 0"/>
<feBlend mode="normal" in2="BackgroundImageFix" result="effect1_dropShadow_36_1005"/>
<feBlend mode="normal" in="SourceGraphic" in2="effect1_dropShadow_36_1005" result="shape"/>
</filter>
</defs>
</svg>
