<svg width="148" height="183" viewBox="0 0 148 183" fill="none" xmlns="http://www.w3.org/2000/svg">
<path d="M139.983 5.79216H134.191V0H133.28V5.79216H127.488V6.61961H133.28V12.4118H134.191V6.61961H139.983V5.79216Z" fill="#F0BBA1"/>
<path d="M139.983 48.2043H134.191V42.4121H133.28V48.2043H127.488V49.0317H133.28V54.8239H134.191V49.0317H139.983V48.2043Z" fill="#F0BBA1"/>
<path d="M139.983 90.6164H134.191V84.8242H133.28V90.6164H127.488V91.4438H133.28V97.236H134.191V91.4438H139.983V90.6164Z" fill="#F0BBA1"/>
<path d="M139.983 133.028H134.191V127.236H133.28V133.028H127.488V133.856H133.28V139.648H134.191V133.856H139.983V133.028Z" fill="#F0BBA1"/>
<path d="M139.983 175.44H134.191V169.647H133.28V175.44H127.488V176.267H133.28V182.059H134.191V176.267H139.983V175.44Z" fill="#F0BBA1"/>
<path d="M97.4868 5.79216H91.6946V0H90.7843V5.79216H84.9922V6.61961H90.7843V12.4118H91.6946V6.61961H97.4868V5.79216Z" fill="#F0BBA1"/>
<path d="M97.4868 48.2043H91.6946V42.4121H90.7843V48.2043H84.9922V49.0317H90.7843V54.8239H91.6946V49.0317H97.4868V48.2043Z" fill="#F0BBA1"/>
<path d="M97.4868 90.6164H91.6946V84.8242H90.7843V90.6164H84.9922V91.4438H90.7843V97.236H91.6946V91.4438H97.4868V90.6164Z" fill="#F0BBA1"/>
<path d="M97.4868 133.028H91.6946V127.236H90.7843V133.028H84.9922V133.856H90.7843V139.648H91.6946V133.856H97.4868V133.028Z" fill="#F0BBA1"/>
<path d="M97.4868 175.44H91.6946V169.647H90.7843V175.44H84.9922V176.267H90.7843V182.059H91.6946V176.267H97.4868V175.44Z" fill="#F0BBA1"/>
<path d="M54.9907 5.79216H49.1985V0H48.2883V5.79216H42.4961V6.61961H48.2883V12.4118H49.1985V6.61961H54.9907V5.79216Z" fill="#F0BBA1"/>
<path d="M54.9907 48.2043H49.1985V42.4121H48.2883V48.2043H42.4961V49.0317H48.2883V54.8239H49.1985V49.0317H54.9907V48.2043Z" fill="#F0BBA1"/>
<path d="M54.9907 90.6164H49.1985V84.8242H48.2883V90.6164H42.4961V91.4438H48.2883V97.236H49.1985V91.4438H54.9907V90.6164Z" fill="#F0BBA1"/>
<path d="M54.9907 133.028H49.1985V127.236H48.2883V133.028H42.4961V133.856H48.2883V139.648H49.1985V133.856H54.9907V133.028Z" fill="#F0BBA1"/>
<path d="M54.9907 175.44H49.1985V169.647H48.2883V175.44H42.4961V176.267H48.2883V182.059H49.1985V176.267H54.9907V175.44Z" fill="#F0BBA1"/>
<path d="M12.4946 5.79216H6.70243V0H5.79216V5.79216H0V6.61961H5.79216V12.4118H6.70243V6.61961H12.4946V5.79216Z" fill="#F0BBA1"/>
<path d="M12.4946 48.2043H6.70243V42.4121H5.79216V48.2043H0V49.0317H5.79216V54.8239H6.70243V49.0317H12.4946V48.2043Z" fill="#F0BBA1"/>
<path d="M12.4946 90.6164H6.70243V84.8242H5.79216V90.6164H0V91.4438H5.79216V97.236H6.70243V91.4438H12.4946V90.6164Z" fill="#F0BBA1"/>
<path d="M12.4946 133.028H6.70243V127.236H5.79216V133.028H0V133.856H5.79216V139.648H6.70243V133.856H12.4946V133.028Z" fill="#F0BBA1"/>
<path d="M12.4946 175.44H6.70243V169.647H5.79216V175.44H0V176.267H5.79216V182.059H6.70243V176.267H12.4946V175.44Z" fill="#F0BBA1"/>
</svg>
