<svg width="25" height="25" viewBox="0 0 25 25" fill="none" xmlns="http://www.w3.org/2000/svg">
<path d="M12.46 2.83C6.94 2.83 2.46 7.31 2.46 12.83C2.46 18.35 6.94 22.83 12.46 22.83C17.98 22.83 22.46 18.35 22.46 12.83C22.46 7.31 17.98 2.83 12.46 2.83ZM9.96 15.5V10.16C9.96 9.37 10.84 8.89 11.5 9.32L15.65 11.99C15.7903 12.0807 15.9057 12.205 15.9856 12.3518C16.0655 12.4985 16.1074 12.6629 16.1074 12.83C16.1074 12.9971 16.0655 13.1615 15.9856 13.3082C15.9057 13.455 15.7903 13.5793 15.65 13.67L11.5 16.34C10.84 16.77 9.96 16.29 9.96 15.5Z" fill="#251F17"/>
</svg>
